<svg xmlns="http://www.w3.org/2000/svg" id="Layer_1" data-name="Layer 1" viewBox="0 0 494.4 66"><defs><style>.cls-1,.cls-2{fill:#fff;}.cls-2{fill-rule:evenodd;}</style></defs><polygon class="cls-1" points="91.2 2.29 141.03 2.29 141.03 12.68 120.68 12.68 120.68 63.71 106.8 63.71 106.8 12.68 86.4 12.68 91.2 2.29 91.2 2.29"></polygon><path class="cls-1" d="M184.22,42.26h10.27q10,0,12.47-.75a7.43,7.43,0,0,0,3.89-2.6,7.35,7.35,0,0,0,1.41-4.6,6.86,6.86,0,0,0-1.86-5,8.8,8.8,0,0,0-5.22-2.41c-1.13-.14-4.5-.21-10.13-.21H184.22V42.26ZM170.33,77.71V16.29h29.22q11,0,16,1.66a15.48,15.48,0,0,1,8,5.88,16.32,16.32,0,0,1,3,9.68A15.4,15.4,0,0,1,222,44.93q-4.55,4.5-13.6,5.67a31.8,31.8,0,0,1,7.43,5.16,69.61,69.61,0,0,1,7.91,10l8.39,12h-16.6l-10-13.37a89,89,0,0,0-7.32-9A10.79,10.79,0,0,0,194,52.76a25.58,25.58,0,0,0-7-.69h-2.81V77.71Z" transform="translate(-20.3 -14)"></path><polygon class="cls-2" points="232.8 2.29 218.92 2.29 218.92 63.71 232.8 63.71 232.8 2.29 232.8 2.29"></polygon><polygon class="cls-1" points="334.88 63.71 292.29 63.71 292.29 2.29 306.18 2.29 306.18 53.36 340.69 53.36 334.88 63.71 334.88 63.71"></polygon><polygon class="cls-2" points="359.24 2.29 345.36 2.29 345.36 63.71 359.24 63.71 359.24 2.29 359.24 2.29"></polygon><polygon class="cls-1" points="367.8 63.71 367.8 2.29 381.31 2.29 409.44 43.31 409.44 2.29 422.34 2.29 422.34 63.71 408.41 63.71 380.7 23.66 380.7 63.71 367.8 63.71 367.8 63.71"></polygon><polygon class="cls-1" points="432.4 63.71 432.4 2.29 446.28 2.29 446.28 29.56 474.33 2.29 492.99 2.29 467.11 26.21 494.4 63.71 476.44 63.71 457.54 34.88 446.28 45.15 446.28 63.71 432.4 63.71 432.4 63.71"></polygon><path class="cls-2" d="M267.82,46.63l19.7-1.51a.7.7,0,0,0,.58-.4l6.78-14.08,1.41,2.13c.12.18,1.36,2.29,1.36,2.29l.38.66L289.51,53.4a.71.71,0,0,0,.06.69L298.47,67l-2.56.16-2.68,0h-.77L281.28,51a.71.71,0,0,0-.63-.3l-15.84,1.22,3-5.26Z" transform="translate(-20.3 -14)"></path><path class="cls-2" d="M73.72,26.56l6.42,11.09,7.94,13.79A19.05,19.05,0,0,1,72.7,80L59.5,60.73a3.78,3.78,0,0,1-.3-3.8L73.72,26.56Z" transform="translate(-20.3 -14)"></path><path class="cls-2" d="M26.4,74.92A19.06,19.06,0,0,1,22.32,52.4L45.6,50.6A3.81,3.81,0,0,1,49,52.24L68.1,80H39.36a19,19,0,0,1-13-5.08Z" transform="translate(-20.3 -14)"></path><path class="cls-2" d="M24.6,48.4,25.43,47,39,23.52A19.08,19.08,0,0,1,55.53,14l.87,0a19,19,0,0,1,15,8.55L61.32,43.64a3.78,3.78,0,0,1-3.14,2.16L24.6,48.4Z" transform="translate(-20.3 -14)"></path></svg>